HIERARCHY
ROOT pelvis
{
	OFFSET 0.000000 0.000000 0.000000
	CHANNELS 6 Xposition Yposition Zposition Zrotation Yrotation Xrotation
	JOINT left_hip
	{
		OFFSET 0.055779 -0.080629 -0.017705
		CHANNELS 3 Zrotation Yrotation Xrotation
		JOINT left_knee
		{
			OFFSET 0.039469 -0.359247 0.009008
			CHANNELS 3 Zrotation Yrotation Xrotation
			JOINT left_ankle
			{
				OFFSET -0.013809 -0.389899 -0.036404
				CHANNELS 3 Zrotation Yrotation Xrotation
				JOINT left_foot
				{
					OFFSET 0.037897 -0.056346 0.116500
					CHANNELS 3 Zrotation Yrotation Xrotation
					End Site
					{
						OFFSET 0.000000 0.000000 0.000000
					}
				}
			}
		}
	}
	JOINT right_hip
	{
		OFFSET -0.057787 -0.088871 -0.013401
		CHANNELS 3 Zrotation Yrotation Xrotation
		JOINT right_knee
		{
			OFFSET -0.039496 -0.356943 -0.002206
			CHANNELS 3 Zrotation Yrotation Xrotation
			JOINT right_ankle
			{
				OFFSET 0.017959 -0.383749 -0.033094
				CHANNELS 3 Zrotation Yrotation Xrotation
				JOINT right_foot
				{
					OFFSET -0.031235 -0.058281 0.124713
					CHANNELS 3 Zrotation Yrotation Xrotation
					End Site
					{
						OFFSET 0.000000 0.000000 0.000000
					}
				}
			}
		}
	}
	JOINT spine1
	{
		OFFSET 0.004196 0.122659 -0.034271
		CHANNELS 3 Zrotation Yrotation Xrotation
		JOINT spine2
		{
			OFFSET 0.005122 0.143143 0.029537
			CHANNELS 3 Zrotation Yrotation Xrotation
			JOINT spine3
			{
				OFFSET -0.001923 0.057757 0.004628
				CHANNELS 3 Zrotation Yrotation Xrotation
				JOINT neck
				{
					OFFSET -0.013781 0.203940 -0.035143
					CHANNELS 3 Zrotation Yrotation Xrotation
					JOINT head
					{
						OFFSET 0.009065 0.086539 0.049216
						CHANNELS 3 Zrotation Yrotation Xrotation
						End Site
						{
							OFFSET 0.000000 0.000000 0.000000
						}
					}
				}
				JOINT left_collar
				{
					OFFSET 0.070315 0.109742 -0.020357
					CHANNELS 3 Zrotation Yrotation Xrotation
					JOINT left_shoulder
					{
						OFFSET 0.122280 0.043464 -0.020451
						CHANNELS 3 Zrotation Yrotation Xrotation
						JOINT left_elbow
						{
							OFFSET 0.245347 -0.013316 -0.020298
							CHANNELS 3 Zrotation Yrotation Xrotation
							JOINT left_wrist
							{
								OFFSET 0.251466 0.010925 -0.008411
								CHANNELS 3 Zrotation Yrotation Xrotation
								End Site
								{
									OFFSET 0.000000 0.000000 0.000000
								}
							}
						}
					}
				}
				JOINT right_collar
				{
					OFFSET -0.083386 0.108780 -0.024575
					CHANNELS 3 Zrotation Yrotation Xrotation
					JOINT right_shoulder
					{
						OFFSET -0.112806 0.044731 -0.008805
						CHANNELS 3 Zrotation Yrotation Xrotation
						JOINT right_elbow
						{
							OFFSET -0.248827 -0.010357 -0.028458
							CHANNELS 3 Zrotation Yrotation Xrotation
							JOINT right_wrist
							{
								OFFSET -0.255561 0.006434 -0.006231
								CHANNELS 3 Zrotation Yrotation Xrotation
								End Site
								{
									OFFSET 0.000000 0.000000 0.000000
								}
							}
						}
					}
				}
			}
		}
	}
}
MOTION
Frames: 16
Frame Time: 0.033333
0.198011 0.653830 -1.431377 -176.934000 31.466900 178.933000 12.132953 28.062791 -40.183724 -1.708781 -0.951241 87.107262 4.537838 22.930469 -29.816201 0.000000 0.000000 0.000000 -14.262505 -33.506618 -56.493103 -0.017991 0.714460 65.416535 0.520270 6.968440 -10.683938 0.000000 0.000000 0.000000 -0.818411 -2.395088 16.979182 0.000000 0.000000 0.000000 6.774166 0.048250 -10.478604 -15.648807 -15.696618 21.921110 30.750697 -25.770261 -32.610337 0.000000 0.000000 0.000000 -74.183257 8.285208 74.215974 119.153339 -45.951484 -91.551520 -7.423124 7.979348 -85.851359 0.000000 0.000000 0.000000 48.142664 24.085779 -7.354328 -92.920353 52.526468 -69.269668 2.153398 5.470042 42.951316
0.204192 0.643441 -1.430073 -177.060000 31.101300 -179.926000 12.445530 29.092081 -42.179110 -1.763198 -0.928577 88.704097 4.406484 22.028410 -30.513350 0.000000 0.000000 0.000000 -13.108923 -35.417737 -59.760881 -0.016775 0.751695 68.086955 0.584741 7.154144 -12.176332 0.000000 0.000000 0.000000 -0.888009 -3.087374 16.504840 0.000000 0.000000 0.000000 6.606367 -0.162184 -10.659843 -15.340301 -15.424869 22.094443 31.304231 -24.811951 -33.979785 0.000000 0.000000 0.000000 -74.861819 8.396945 73.436191 119.319372 -45.879613 -91.687309 -7.438387 7.980399 -85.961623 0.000000 0.000000 0.000000 49.118296 25.121872 -10.010564 -94.332052 52.372857 -70.494835 1.917730 5.206530 40.418624
0.210517 0.637679 -1.429843 -176.759000 31.109400 -179.411000 13.645238 30.547122 -42.617146 -1.769421 -0.916867 89.590136 4.202047 20.779636 -31.124187 0.000000 0.000000 0.000000 -11.940405 -36.844510 -61.299133 -0.018709 0.772452 69.582583 0.572518 6.875004 -13.844811 0.000000 0.000000 0.000000 -0.866858 -3.333792 16.589484 0.000000 0.000000 0.000000 6.570897 -0.233063 -10.578789 -15.135895 -15.480783 22.357807 31.647026 -24.899129 -33.835490 0.000000 0.000000 0.000000 -74.381439 8.339876 74.513992 118.498135 -46.230193 -91.014708 -7.263576 7.966221 -84.701145 0.000000 0.000000 0.000000 49.123403 25.497885 -11.105315 -92.131322 52.603897 -68.584073 1.848637 5.124624 39.651151
0.214616 0.634412 -1.430010 -176.906000 30.786500 -179.266000 13.910782 31.082476 -43.038421 -1.781674 -0.905770 90.110625 4.151907 20.454054 -31.104652 0.000000 0.000000 0.000000 -11.679190 -37.855829 -62.177315 -0.008732 0.790979 70.704889 0.507228 6.318714 -14.760186 0.000000 0.000000 0.000000 -1.463074 -3.471041 16.841514 0.000000 0.000000 0.000000 7.087415 -0.245194 -10.610898 -15.169693 -15.668560 22.260430 31.756886 -25.290600 -33.649225 0.000000 0.000000 0.000000 -73.940157 8.371333 74.744591 118.116816 -46.389108 -90.701566 -7.591517 7.989602 -87.063983 0.000000 0.000000 0.000000 47.862413 25.089228 -10.344618 -90.051072 52.779346 -66.774863 1.764691 5.022007 38.701909
0.217341 0.631896 -1.429488 -176.701000 30.175100 -178.879000 13.975651 30.902246 -43.994697 -1.787456 -0.894412 90.698941 4.200981 20.619861 -30.797614 0.000000 0.000000 0.000000 -11.554083 -37.883429 -62.513485 0.010699 0.803534 71.282622 0.361966 5.226347 -14.967069 0.000000 0.000000 0.000000 -1.323708 -3.301201 17.027616 0.000000 0.000000 0.000000 7.117338 -0.179322 -10.695453 -15.136623 -15.833422 22.626752 32.580639 -25.239800 -35.097071 0.000000 0.000000 0.000000 -73.377681 8.876148 74.449227 118.801602 -46.101995 -91.263575 -7.467549 7.982346 -86.171067 0.000000 0.000000 0.000000 46.726110 24.048030 -10.401823 -89.384357 52.829088 -66.194660 1.839944 5.114164 39.553829
0.217109 0.630487 -1.427860 -176.478000 30.025300 -178.342000 13.851006 30.133334 -44.965824 -1.802570 -0.884933 91.109687 4.372586 21.379298 -30.051078 0.000000 0.000000 0.000000 -11.519925 -36.490666 -62.890905 0.029636 0.808224 71.326760 0.197248 4.002451 -13.953318 0.000000 0.000000 0.000000 -1.084665 -3.134313 17.057195 0.000000 0.000000 0.000000 7.062735 -0.125890 -10.580526 -15.199690 -15.942199 22.727280 33.122138 -25.199155 -35.934205 0.000000 0.000000 0.000000 -73.097178 9.424873 74.183708 119.291610 -45.891670 -91.664470 -7.388533 7.976758 -85.602358 0.000000 0.000000 0.000000 45.888441 23.738173 -10.824156 -89.147138 52.848552 -65.988323 1.865816 5.145211 39.843177
0.211646 0.631791 -1.425679 -176.823000 31.115000 -178.040000 12.637653 29.527901 -45.527480 -1.827532 -0.886657 90.973455 4.654981 22.679929 -29.105494 0.000000 0.000000 0.000000 -11.924308 -33.802043 -63.365112 0.038510 0.797406 70.387166 0.045951 2.894201 -12.265588 0.000000 0.000000 0.000000 -1.202932 -2.434754 17.215226 0.000000 0.000000 0.000000 6.708832 0.035206 -10.583302 -14.904124 -15.919142 22.965706 33.496384 -24.869558 -36.912227 0.000000 0.000000 0.000000 -72.712600 8.941846 75.297694 118.789526 -46.107108 -91.253608 -7.403125 7.977835 -85.707376 0.000000 0.000000 0.000000 44.639761 23.500828 -10.688117 -88.589832 52.884082 -65.502936 1.665013 4.895486 37.548792
0.199344 0.639031 -1.423738 -177.998000 33.916500 -177.825000 9.740937 28.753390 -45.208306 -1.875220 -0.909257 89.372411 5.162499 25.292270 -28.176286 0.000000 0.000000 0.000000 -12.937674 -29.362647 -63.814061 0.026155 0.758088 67.668806 -0.051878 2.241095 -9.562283 0.000000 0.000000 0.000000 -2.009958 -1.445700 17.263468 0.000000 0.000000 0.000000 6.308525 0.235655 -10.556290 -14.381990 -15.692376 22.877988 33.893816 -23.984865 -37.741923 0.000000 0.000000 0.000000 -72.613387 6.774026 77.428949 117.271570 -46.732700 -90.005949 -7.347483 7.973487 -85.306142 0.000000 0.000000 0.000000 43.303559 23.183765 -9.654698 -88.340808 52.897342 -65.285924 1.764464 5.021737 38.699374
0.178143 0.653280 -1.421525 -179.420000 38.270500 -177.177000 5.714263 26.860484 -44.892536 -1.858108 -0.949584 86.562806 5.735153 28.267907 -26.580279 0.000000 0.000000 0.000000 -13.882705 -24.182643 -64.311028 -0.023143 0.674679 62.582056 0.071967 3.395462 -5.571351 0.000000 0.000000 0.000000 -2.542666 -1.020156 17.154103 0.000000 0.000000 0.000000 5.788620 0.282106 -10.524629 -13.631577 -15.057756 22.413988 33.613337 -22.221521 -38.920584 0.000000 0.000000 0.000000 -73.359478 3.534255 79.248605 115.146351 -47.546360 -88.246510 -7.447559 7.980984 -86.027374 0.000000 0.000000 0.000000 41.742081 24.522113 -7.841582 -87.821986 52.923100 -64.833719 1.878522 5.160324 39.984576
0.149176 0.673005 -1.420335 179.235000 44.587400 -176.085000 1.950984 23.669866 -44.308450 -1.751739 -1.002864 82.838212 5.999578 29.815450 -25.059732 0.000000 0.000000 0.000000 -13.837117 -19.173726 -65.206406 -0.091744 0.542930 55.123190 0.260482 5.463828 -0.250451 0.000000 0.000000 0.000000 -2.489836 -0.774778 17.055507 0.000000 0.000000 0.000000 5.324311 0.323855 -10.726673 -12.488322 -13.825242 21.108629 31.484235 -19.634381 -39.710655 0.000000 0.000000 0.000000 -75.193851 -0.293059 79.926318 112.179233 -48.568096 -85.768503 -7.173555 7.957473 -84.051015 0.000000 0.000000 0.000000 39.724499 27.216460 -6.353836 -86.370358 52.989944 -63.568479 1.854446 5.131596 39.716103
0.118449 0.692194 -1.421296 177.030000 53.267700 -175.959000 -1.171048 20.054054 -42.763494 -1.665103 -1.052516 78.769382 5.942891 30.014155 -23.379891 0.000000 0.000000 0.000000 -10.178362 -17.655927 -68.560477 -0.126791 0.427441 48.353093 0.426226 7.633474 7.745556 0.000000 0.000000 0.000000 -3.499425 0.389056 17.419214 0.000000 0.000000 0.000000 5.195222 0.640703 -11.527331 -11.062795 -12.076994 19.453388 28.022538 -16.520570 -39.747375 0.000000 0.000000 0.000000 -76.819286 -4.833085 80.098178 108.836861 -49.570996 -82.950407 -6.720762 7.897690 -80.769731 0.000000 0.000000 0.000000 37.265671 30.896828 -5.439669 -81.996067 53.077440 -59.753318 1.773685 5.033178 38.804540
0.094782 0.702475 -1.426733 174.646000 62.945200 -177.166000 -2.990685 16.551710 -40.181191 -1.699317 -1.097649 75.796982 5.557865 29.287571 -23.379117 0.000000 0.000000 0.000000 0.959722 -20.611460 -74.766911 -0.027290 0.535570 51.577855 1.737145 18.926672 2.733819 0.000000 0.000000 0.000000 -4.611808 1.934584 17.284962 0.000000 0.000000 0.000000 5.125748 1.053650 -11.809726 -10.648292 -9.917777 19.061185 24.876850 -12.824788 -39.730981 0.000000 0.000000 0.000000 -78.283484 -10.768770 79.547283 106.167336 -50.267609 -80.682508 -6.774415 7.906146 -81.160030 0.000000 0.000000 0.000000 34.594497 34.733494 -5.388372 -74.894053 52.845520 -53.561394 1.724112 4.971130 38.236019
0.077528 0.703603 -1.433882 171.054000 71.767100 179.329000 -5.078682 13.139456 -37.764018 -1.927297 -1.158284 74.207541 5.036150 28.898686 -25.333212 0.000000 0.000000 0.000000 7.848615 -21.983751 -79.744019 0.275017 0.823023 66.911162 2.898075 23.897806 0.702267 0.000000 0.000000 0.000000 -5.950590 3.998222 17.056378 0.000000 0.000000 0.000000 3.718851 1.473344 -11.981320 -9.370097 -8.148700 18.553954 21.161206 -10.387977 -38.363503 0.000000 0.000000 0.000000 -80.193842 -20.773667 81.524595 102.275935 -51.129297 -77.353568 -6.490567 7.857241 -79.089609 0.000000 0.000000 0.000000 33.325892 37.430233 -5.469494 -65.978000 51.877234 -45.823865 1.544668 4.735371 36.115265
0.062843 0.700850 -1.442409 162.792000 78.172800 170.538000 -8.101638 9.794962 -35.780999 -1.989868 -1.194312 72.902921 4.875313 30.506422 -26.702438 0.000000 0.000000 0.000000 8.066677 -23.325188 -80.998198 0.523220 1.005818 84.731180 2.784542 18.445945 -4.198147 0.000000 0.000000 0.000000 -7.932153 4.232042 16.959536 0.000000 0.000000 0.000000 3.083635 1.387977 -12.165524 -7.940205 -6.044897 17.926834 16.885155 -7.444901 -36.550037 0.000000 0.000000 0.000000 -85.857560 -34.752682 89.221717 106.543687 -50.174842 -81.003108 -5.178806 7.489071 -69.288737 0.000000 0.000000 0.000000 33.838687 42.095627 -3.884890 -54.207017 49.299392 -35.754362 1.512513 4.691126 35.724024
0.048765 0.701800 -1.446813 156.234000 82.696000 164.156000 -9.564602 6.982932 -35.226242 -1.816457 -1.188560 71.357606 4.696202 31.507677 -28.167341 0.000000 0.000000 0.000000 6.624660 -25.792992 -78.935253 0.677561 1.106290 97.298683 1.562467 9.180475 -7.733191 0.000000 0.000000 0.000000 -8.545292 1.952152 15.689540 0.000000 0.000000 0.000000 2.655977 0.621657 -11.623694 -5.682399 -3.525798 17.123709 12.560622 -3.481619 -35.383772 0.000000 0.000000 0.000000 -98.645622 -51.129481 105.143412 119.013646 -46.011504 -91.437186 -2.685257 5.988036 -48.275384 0.000000 0.000000 0.000000 37.881641 50.056940 2.600653 -43.082950 45.164316 -26.525017 1.284839 4.358183 32.838562
0.040267 0.707074 -1.446875 124.232000 87.698800 132.117000 -9.674774 6.440517 -35.014846 -1.522880 -1.131525 70.826506 4.591204 31.755237 -27.382785 0.000000 0.000000 0.000000 2.494249 -26.687950 -71.224057 0.670361 1.157355 101.482098 0.978788 5.880670 -8.089253 0.000000 0.000000 0.000000 -8.536834 2.409439 14.852433 0.000000 0.000000 0.000000 1.995093 0.599574 -11.242324 -3.090203 -2.175697 15.558600 9.736471 -1.520976 -33.685154 0.000000 0.000000 0.000000 -131.799852 -61.943794 144.754632 125.950619 -42.598519 -97.019317 -0.309340 2.209776 -15.935866 0.000000 0.000000 0.000000 42.946638 54.198205 17.245471 -42.295833 44.794983 -25.887422 0.157188 1.583023 11.340586
